<?xml version="1.0" encoding="utf-8"?><svg width="1479" height="794" viewBox="0 0 1479 794" xmlns="http://www.w3.org/2000/svg" xmlns:xlink="http://www.w3.org/1999/xlink"><svg viewBox="0 0 284 43.6" width="284" height="43.6" id="arrow" x="398" y="505"><path fill="none" stroke="#F7935A" stroke-width="4" stroke-miterlimit="10" d="M16.6 21.8h263.9m-261.9 0L1.5 1.6m25.6 20.2l-17-20.2m25.5 20.2l-17-20.2m25.5 20.2l-17-20.2m25.6 20.2L35.6 1.6m-17 20.2L1.5 42m25.6-20.2L10.1 42m25.5-20.2L18.6 42m25.5-20.2L27.1 42m25.6-20.2L35.6 42m215.9 0l29-20.2-29-20.2"/></svg><svg viewBox="0 0 97.9 108.5" width="97.9" height="108.5" id="check" x="1333.9" y="630.1"><path fill="#1D1D1B" d="M95.5.6C83.4 18 72 36.1 60.4 53.8c-2.7 4.1-5.3 8.1-8 12.2 2.4-4.1 4.7-8.2 7.2-12.2C70.1 36.3 82 19.7 92.9 2.4c.7-1.1-1-2.6-1.9-1.5-12.3 15.9-22.8 33.6-33.1 50.9C50.5 64.3 43.4 77 36.7 89.9c-.9 1.3-1.7 2.6-2.6 4-1.8 2.7-3.7 5.4-5.3 8.2-.2-.3-.4-.5-.7-.8-.4-.5-.8-1-1.1-1.6-1.1-1.6-2.3-3.1-3.4-4.7-2.5-3.4-4.9-6.8-7.4-10.2-2.3-3.1-4.5-6.3-6.8-9.4-1.1-1.6-2.3-3.1-3.4-4.7-.2-.4-2.2-2.7-3.3-3.7.2 0 .3-.1.4-.3 0-.1.1-.2.1-.3.1-.3-.1-.6-.4-.7-.1 0-.2-.1-.4-.1-.3-.1-.7.1-.8.4-.7 2.3 2.7 5.3 3.9 7.1 3.1 4.5 6.2 9 9.4 13.5 2.9 4.2 5.9 8.5 8.8 12.7.9 1.3 1.8 3.2 2.9 4.8h-.1c-4.5-5.8-8.9-11.6-13.2-17.5-4-5.7-7.7-12.3-12.6-17.4-.4-.4-.9.1-.7.5 3.1 7 8.5 13.3 12.9 19.5 4.5 6.3 9.1 12.6 13.8 18.8.7 1 2 .5 2.2-.4.3.2.7.2 1-.2.1-.1.1-.2.2-.4h.1c.7.2 1.3-.2 1.5-.9.1-.2.1-.3.2-.5.2-.4-.1-.9-.4-1.2 2.3-4.4 4.7-8.8 7.1-13.2 2.1-3.2 4.3-6.4 6.4-9.5 5.9-8.8 11.8-17.7 17.7-26.5 11.5-17.9 23.7-35.4 35-53.4.8-1.3-1.3-2.5-2.2-1.2"/></svg><svg viewBox="0 0 398 289" width="398" height="289" id="check-contacts" y="505"><defs><path id="ca" d="M0 0h397.9v289H0z"/></defs><clipPath id="cb"><use xlink:href="#ca" overflow="visible"/></clipPath><path clip-path="url(#cb)" d="M390.2 7.8c-10.4-10.4-26.4-10.4-36.8 0L135.8 225.4 44.6 135c-10.4-10.4-26.4-10.4-36.8 0-10.4 10.4-10.4 26.4 0 36.8l109.6 108.8c4.8 4.8 12 8 18.4 8 6.4 0 13.6-3.2 18.4-8l236-235.2c10.4-10.4 10.4-27.2 0-37.6zm0 0"/></svg><svg width="100" height="100" viewBox="0 0 21.5 21.5" id="clock" x="741.8" y="548.6"><path d="M10.8 0C4.8 0 0 4.8 0 10.8c0 5.9 4.8 10.8 10.8 10.8 5.9 0 10.8-4.8 10.8-10.8C21.5 4.8 16.7 0 10.8 0zm0 20.6c-5.4 0-9.8-4.4-9.8-9.8S5.4 1 10.8 1s9.8 4.4 9.8 9.8-4.4 9.8-9.8 9.8zm0 0"/><path d="M7.5 3.7l-.4-.8-.5.2.4.8c.2-.1.3-.1.5-.2zm-4.6 7.2v-.5H1.8v1h1.1v-.5zm8.6-8V1.8h-1v1.1h1zm7.8 4.3l-.3-.4-.9.4c.1.1.1.3.2.4l1-.4zm-4.1-3.1c.1.1.3.2.4.3l.5-.8-.4-.3-.5.8zM3.3 6.2l.8.6c.1-.1.2-.3.3-.4l-.8-.6-.3.4zm11 12.1l.6 1.2.4-.2-.6-1.2c-.1 0-.3.1-.4.2zm3-2.4l1 .7.3-.4-1-.7c-.1.1-.2.2-.3.4zm1.7-5.5v1h1.1v-1H19zM10.5 19v1.1h1V19h-1zm-4.7-.2l.4.2.7-1.1c-.1-.1-.3-.2-.4-.3l-.7 1.2zm-3.1-3.7l.2.4L4 15c-.1-.1-.2-.3-.2-.4l-1.1.5zm8.6-11.4h-.7v7.5l-4.1 4.5.1.1 4-4.3h5.2v-1h-4.6V3.7zm0 0"/></svg><svg viewBox="0 0 119.5 119.5" width="119.5" height="119.5" id="close" x="1333.9" y="510.6"><path fill="#010002" d="M119.5 115.2L64 59.7l55.4-55.4-4.2-4.3-55.5 55.4L4.3 0 0 4.3l55.4 55.4L0 115.2l4.3 4.3L59.7 64l55.4 55.4 4.4-4.2zm0 0"/></svg><svg viewBox="0 0 45 31" width="45" height="31" id="envelope" x="1424.5" y="389"><defs><path id="fa" d="M0 0h44.9v31H0z"/></defs><clipPath id="fb"><use xlink:href="#fa" overflow="visible"/></clipPath><path clip-path="url(#fb)" d="M22.5 18c.3 0 .7-.1 1-.3h.2l.9-.7L44.9.1c0-.1-.1-.1-.2-.1H.2S.1 0 .1.1l21.4 17.6c.3.2.6.3 1 .3zM0 2.4v25L15.3 15 0 2.4zm29.7 12.7L45 27.4V2.5L29.7 15.1zm-4.9 4c-.6.5-1.4.8-2.3.8-.8 0-1.6-.3-2.2-.8l-3.5-2.9L0 29.8c0 .1.1.2.2.2h44.5c.1 0 .2-.1.2-.2L28.2 16.3l-3.4 2.8zm0 0"/></svg><svg viewBox="0 0 42 77" width="42" height="77" id="fb" x="1382.5" y="389"><defs><path id="ga" d="M0 .1h42V77H0z"/></defs><clipPath id="gb"><use xlink:href="#ga" overflow="visible"/></clipPath><path clip-path="url(#gb)" d="M40 0H30C18.8 0 11.6 7.4 11.6 18.9v8.7h-10c-.9 0-1.6.7-1.6 1.6v12.6c0 .9.7 1.6 1.6 1.6h10v31.9c0 .9.7 1.6 1.6 1.6h13.1c.9 0 1.6-.7 1.6-1.6V43.4h11.7c.9 0 1.6-.7 1.6-1.6V29.2c0-.4-.2-.8-.5-1.1-.3-.3-.7-.5-1.1-.5H27.8v-7.4c0-3.6.8-5.4 5.5-5.4H40c.9 0 1.6-.7 1.6-1.6V1.6C41.6.7 40.9 0 40 0zm0 0"/></svg><svg width="100" height="100" viewBox="0 0 19.7 22.5" id="gift" x="641.8" y="548.6"><path d="M6.4 16.5l-.9-1.4-1.8.3 2.4-4.3H1.3v11.3h8.1V11.1l-3 5.4zM19.7 5.7h-5.4c.3-.2.6-.3.8-.5 1-.7 1.5-1.6 1.5-2.4 0-.7-.3-1.7-.8-2.1C15.3.3 14.7 0 14 0s-1.4.3-2 .6c-.9.6-1.6 1.9-2.1 2.8 0 .1-.1.1-.1.1-.1-.2-.4-1-.6-1.3C8.8 1.6 8.3 1 7.7.6 7.1.3 6.4 0 5.7 0S4.3.3 3.8.8 3 2.3 3 3.1c0 .4.1.9.3 1.3.3.5.9 1 1.6 1.4H0v4.5h9.3V5.7h1.1v4.5h9.3V5.7zM5.3 4.3c-.4-.2-.6-.5-.8-.7-.1-.2-.2-.5-.2-.7 0-.3.1-.8.4-1.1.3-.3.7-.4 1-.4.4 0 .8.1 1.2.4.6.4 1.2 1.5 1.6 2.3.2.4.4.8.5 1.3-1.8-.2-3-.6-3.7-1.1zm6.3-1c.3-.5.7-1.3 1.1-1.5.4-.3.8-.4 1.2-.4.3 0 .7.1.9.3.2.2.3.6.3.8 0 .3-.2 1-.9 1.5s-1.9 1-3.7 1.4c.3-.7.7-1.4 1.1-2.1zM16 15.4l-1.8-.3-.9 1.4-3-5.3v11.3h8V11.1h-4.7l2.4 4.3zm0 0"/></svg><svg viewBox="0 0 391.9 389" width="391.9" height="389" id="man-board" x="1087"><defs><path id="ia" d="M0 0h391.9v389H0z"/></defs><clipPath id="ib"><use xlink:href="#ia" overflow="visible"/></clipPath><path clip-path="url(#ib)" d="M379 2.9H170.9c-6.9 0-12.5 5.6-12.5 12.5v88.4l9.1-10.6c4.3-5 10-8.1 16-9.4V28h183.1v163.6H183.4v-27.4l-5.6 6.6c-4.9 5.8-11.9 9.3-19.4 10v23.3c0 6.9 5.6 12.5 12.5 12.5h67.6l-34.3 155.9c-1.5 7 2.9 13.9 9.9 15.4 6.9 1.5 13.9-2.9 15.4-9.9L265 216.7h20.7l35.6 161.5c1.3 6 6.7 10.2 12.6 10.2.9 0 1.9-.1 2.8-.3 7-1.5 11.4-8.5 9.9-15.4l-34.3-155.9H379c6.9 0 12.5-5.6 12.5-12.5V15.5c0-7-5.6-12.6-12.5-12.6zm0 0"/><path clip-path="url(#ib)" d="M279.5 76.1c-1-2.5-3.8-3.7-6.3-2.7l-73.8 26c-6.8-5.2-16.5-4.3-22.2 2.3L153.8 129 133 111.2c.1 1.5.5 2.9.5 4.4v38.6l11.5 9.9c6.9 5.9 17.1 5 22.8-1.8l27.9-32.6 22.5-13.1L277.4 82c2.1-1.1 3-3.7 2.1-5.9zM87.9 83H74c-10.6 0-20 5.2-26 13.1L5.4 135.4c-6.7 5.9-7.3 16.2-1.3 22.9L39 197.1c5.9 6.6 16.2 7.2 22.9 1.3 6.7-6 7.2-16.2 1.3-22.9l-24-26.8 34.1-30.5-19.9 27 19.4 21.7c10.7 12 9.7 30.4-2.3 41.2-8.2 7.3-19.4 9.1-29 5.7 0 0 .2 74.9.2 155.2 0 10.7 8.7 19.4 19.4 19.4s19.4-8.7 19.4-19.4V253.1h13v115.8c0 5.6-1.6 10.8-4.1 15.4 3.3 2.5 7.3 4 11.7 4 10.7 0 19.4-8.7 19.4-19.4V115.6c.1-18-14.5-32.6-32.6-32.6zm0 0"/><path d="M63.7 71.4c5.2 2.7 11 4.4 17.3 4.4 6.3 0 12.1-1.7 17.3-4.4 12.2-6.3 20.5-18.8 20.5-33.5C118.8 17 101.9 0 81 0S43.1 17 43.1 37.9c0 14.6 8.4 27.2 20.6 33.5zm0 0"/></svg><svg viewBox="0 0 624 505" width="624" height="505" id="man-table"><path fill="#222221" d="M530.3 446.3H203.6c-9.2 0-16.6 7.5-16.6 16.6v10.2c0 9.2 7.5 16.6 16.6 16.6h381.8v-43.5h-55.1zM261.1 92.2c0 50.9-41.3 92.2-92.2 92.2-50.9 0-92.2-41.3-92.2-92.2C76.8 41.3 118.1 0 168.9 0c50.9 0 92.2 41.3 92.2 92.2zm0 0"/><defs><path id="ja" d="M0 0h624v505H0z"/></defs><clipPath id="jb"><use xlink:href="#ja" overflow="visible"/></clipPath><path clip-path="url(#jb)" fill="#222221" d="M393.8 318.2l-211.2-.1h-5v-24.5l-.2-20.5c0-49-39.7-88.7-88.7-88.7-1.7 0-3.3.1-4.9.1l-.1-.1C37.4 184.3 0 221.8 0 267.9v236.2h177.6V403.6l-2.4-.2h-.3c-12 0-23.5-5.1-31.6-13.9l-72.1-78.7c-2.3-2.5-2.1-6.4.4-8.7 2.5-2.3 6.4-2.1 8.7.4l72.1 78.7c5.9 6.4 14.1 10.3 22.8 10.4.6 0 8.5.1 8.5.1h210.1c20.3 0 36.8-16.5 36.8-36.8s-16.5-36.7-36.8-36.7zm0 0"/><path clip-path="url(#jb)" fill="#222221" d="M612.2 187.7c-8.6-2.9-18 1.6-20.9 10.2l-69.8 203.7H271.8c-9.1 0-16.5 7.4-16.5 16.4 0 9.1 7.4 16.5 16.5 16.5H533c5.6 0 10.5-2.8 13.5-7.1 1-1.4 1.9-2.9 2.4-4.6l73.4-214.3c3-8.5-1.5-17.8-10.1-20.8zm0 0"/></svg><svg viewBox="0 0 246.9 373.3" width="246.9" height="373.3" id="marker" x="1087" y="389"><path d="M123.5 0C55.4 0 0 55.4 0 123.5c0 27.4 17.5 72.1 53.5 136.7 25.5 45.7 50.5 83.7 51.6 85.3l18.4 27.8 18.4-27.8c1.1-1.6 26.1-39.7 51.6-85.3 36-64.5 53.5-109.2 53.5-136.7C246.9 55.4 191.5 0 123.5 0zm0 186.6c-35.3 0-64-28.7-64-64s28.7-64 64-64 64 28.7 64 64c0 35.4-28.7 64-64 64zm0 0"/></svg><svg viewBox="0 0 48.6 121.6" width="48.6" height="121.6" id="pencil" x="1333.9" y="389"><g fill-rule="evenodd" clip-rule="evenodd" fill="#2D2D2D"><path d="M3.5 8.9h34.3c1.1 0 2.1-.9 2.1-2s-.9-2.1-2.1-2.1H3.5c-1.1 0-2 .9-2 2.1 0 1.1.9 2 2 2zm34.3 6c0-1.1-.9-2-2.1-2H5.9c-1.1 0-2 .9-2 2s.9 2 2 2h29.8c1.2.1 2.1-.8 2.1-2zM9.4 21.5c-1.1 0-2 .9-2 2.1 0 1.1.9 2 2 2h21.3c1.1 0 2.1-.9 2.1-2s-.9-2.1-2.1-2.1H9.4zm-.8 45.8c0 1.1.9 2 2 2h34.3c1.1 0 2-.9 2-2s-.9-2.1-2-2.1H10.7c-1.2 0-2.1.9-2.1 2.1zm2.1-8.1c0 1.1.9 2.1 2 2.1h29.8c1.1 0 2.1-.9 2.1-2.1 0-1.1-.9-2-2.1-2H12.8c-1.2-.1-2.1.9-2.1 2zM39 52.6c1.1 0 2-.9 2-2s-.9-2.1-2-2.1H17.7c-1.1 0-2 .9-2 2.1 0 1.1.9 2 2 2H39z"/><path d="M46.5 71.4c-.6 0-1.1.2-1.5.6l-5.4 4.8-5.5-5c-.8-.7-2-.7-2.8 0l-7 6.3-6.6-6.1c-.8-.8-2.1-.7-2.9.1l-5.2 5.5-5.5-5C4.4 54 15.2 46.2 25.8 38.5c11.4-8.2 22.7-16.4 22.7-36.4 0-1.1-.9-2.1-2-2.1s-2.1.9-2.1 2.1c0 17.9-10.4 25.4-21 33C11.8 43.5 0 52 0 73.3v7.8c0 .4.1.8.3 1.1l11 19.2.1.1 11 19.1c.5.9 1.8 1.3 2.8.7.3-.2.6-.4.8-.7l11.1-19.2 11.1-19.3c.2-.3.3-.7.3-1v-7.6c.1-1.2-.9-2.1-2-2.1zm-2.1 9.1L33.6 99.3l-.3.5H15.2l-.2-.4v-.1L4.1 80.5v-2.4l4.2 3.8c.8.7 2.1.7 2.9-.1l5.2-5.5 6.5 6.2c.7.8 2 .8 2.8.1l7-6.4 5.5 4.9c.7.6 1.9.7 2.7 0l3.4-3.1v2.5z"/></g></svg><svg viewBox="0 0 463 463" width="463" height="463" id="phone" x="624"><defs><path id="ma" d="M0 0h463v463H0z"/></defs><clipPath id="mb"><use xlink:href="#ma" overflow="visible"/></clipPath><path clip-path="url(#mb)" d="M462.3 364.8c1 7.5-1.3 14-6.9 19.6L390.3 449c-2.9 3.3-6.8 6-11.5 8.3-4.7 2.3-9.4 3.8-14 4.4-.3 0-1.3.1-2.9.2-1.6.2-3.8.2-6.4.2-6.2 0-16.2-1.1-30.1-3.2-13.9-2.1-30.8-7.3-50.9-15.7-20.1-8.3-42.8-20.8-68.3-37.5-25.5-16.6-52.6-39.5-81.3-68.5-22.8-22.5-41.8-44.1-56.8-64.6-15-20.6-27.1-39.6-36.2-57-9.1-17.5-16-33.3-20.6-47.5C6.8 154 3.7 141.7 2 131.5c-1.6-10.3-2.3-18.4-2-24.2.3-5.9.5-9.1.5-9.8.7-4.6 2.1-9.2 4.4-14 2.3-4.7 5.1-8.6 8.3-11.5L78.4 6.9C83 2.3 88.2 0 94.1 0c4.2 0 8 1.2 11.3 3.7 3.3 2.4 6 5.5 8.3 9.1l52.4 99.4c2.9 5.2 3.8 10.9 2.4 17.1-1.3 6.2-4.1 11.4-8.3 15.7l-24 24c-.7.7-1.2 1.7-1.7 3.2-.5 1.5-.7 2.7-.7 3.7 1.3 6.9 4.2 14.7 8.8 23.5 3.9 7.8 10 17.4 18.1 28.6 8.2 11.3 19.7 24.2 34.8 38.9 14.7 15 27.7 26.7 39.2 35 11.4 8.3 21 14.4 28.6 18.4 7.7 3.9 13.5 6.3 17.6 7.1l6.1 1.2c.7 0 1.7-.2 3.2-.7 1.5-.5 2.5-1.1 3.2-1.7l27.9-28.4c5.9-5.2 12.7-7.8 20.6-7.8 5.6 0 10 1 13.2 2.9h.5l94.5 55.8c6.8 4.1 10.9 9.5 12.2 16.1zm0 0"/></svg><svg width="100" height="100" viewBox="0 0 14.9 15" id="pig" x="841.8" y="548.6"><defs><path id="na" d="M0 0h14.9v15H0z"/></defs><clipPath id="nb"><use xlink:href="#na" overflow="visible"/></clipPath><path clip-path="url(#nb)" d="M14.6 8.4c-.1-.1-.2-.1-.3-.1-.2 0-.2-.1-.3-.1-.1-1-.6-2-1.4-2.9.3-.6.2-1.3.2-1.5 0-.1-.1-.2-.2-.3-.1-.1-.2-.1-.3-.1l-2.3.7c-.2-.1-.6-.1-1.3-.2-.2-.1-.5-.1-.8-.1-1.7 0-3.2.9-3.3.9-1.1.7-1.8 1.7-2.2 2.8-.1.1-.2.1-.3.1 0-.3 0-.5-.1-.7-.3-.7-1-.1-1 .5 0 .2.2.4.4.6h-.3C.4 7.8.3 7 .4 6.4c.1-.4-.4-.2-.4 0-.1 1 .2 2.1 1.4 2 .2 0 .4-.2.5-.3.1 0 .3 0 .4-.1 0 .2-.1.5-.1.7 0 1.5.1 2.8 1.7 3.8.1.1.1.6.1 1 0 .2.2.4.4.4l1.4.1c.2 0 .4-.2.4-.4v-.4c.5.1 1.1.1 1.6.1H8c0 .1.1.3.1.5s.2.3.4.3h.9c.2 0 .4-.2.4-.4 0-.3 0-.6.1-.8h.3c0 .1.1.3.1.4.1.2.2.3.4.3l1.4-.1c.1 0 .2-.1.3-.2.1-.1.1-.2.1-.3-.1-.2-.1-.5-.1-.7.2-.2.3-.4.4-.6.1-.1.1-.2.2-.3.4-.5 1.2-.5 1.3-.5.1 0 .2 0 .3-.1.1-.1.1-.2.1-.3V8.7c0-.1 0-.2-.1-.3zM1.4 7.3c0-.2 0-.3.2-.2.1.1.1.3.1.4v.1l-.3-.3zm11 3.6c-.1.2-.2.4-.3.5-.1.2-.1.3-.3.4h-.1c-.1.1-.2.2-.1.9l-.6.1c-.2-.6-.3-.7-.5-.7H10c-.3 0-.4 0-.5.1 0 0-.1 0-.1.1-.1.1-.2.2-.3 1h-.3c-.1-.5-.2-.8-.6-.8h-.4c-.6 0-1.2 0-1.7-.2H6c-.2 0-.3.1-.4.2-.1.2-.2.4-.2.7h-.5c0-.7-.2-1.2-.5-1.3C3.2 11.1 3 10.3 3 8.7c0-1.3.7-2.6 2-3.3 0 0 1.4-.8 2.9-.8.3 0 .5 0 .8.1.7.1 1 .1 1.1.2h.2l2-.5c0 .3-.1.7-.2.8-.1.1-.1.2-.1.3 0 .1.1.2.1.3.8.7 1.3 1.7 1.4 2.6v.1c.2.3.4.5.8.6v1.1c-.4 0-1.1.2-1.6.7zm-8-9.1C4.4.8 5.2 0 6.2 0S8 .8 8 1.8s-.8 1.8-1.8 1.8-1.8-.8-1.8-1.8zm4.8 4.8c-.1.2-.3.3-.5.3-2-.7-3.1.4-3.1.5-.1 0-.2.1-.3.1-.1 0-.2 0-.3-.1-.1-.2-.1-.4 0-.6.1 0 1.4-1.6 4-.7.2.1.3.3.2.5zm3.2 1c0 .3-.2.6-.4.6s-.4-.3-.4-.6.2-.6.4-.6c.2.1.4.3.4.6zm0 0"/></svg><svg width="100" height="100" viewBox="0 0 20.9 26" id="price-ok" x="941.8" y="548.6"><defs><path id="oa" d="M0 .1h20.9V26H0z"/></defs><clipPath id="ob"><use xlink:href="#oa" overflow="visible"/></clipPath><path clip-path="url(#ob)" d="M10.2 7.2C8.4 4.9 7.3 3 5 0c-.7.1-2.1 1.4-1.4 2.1 1.5 2 4.6 3.8 6.6 5.1zm0 0"/><path d="M12.8 8.4c-1-2.1-2-4.1-3.3-6.4-.7.2-1.2.6-1.2 1.3.9 1.5 1.5 3.7 4.5 5.1zm0 0"/><defs><path id="oc" d="M0 .1h20.9V26H0z"/></defs><clipPath id="od"><use xlink:href="#oc" overflow="visible"/></clipPath><path clip-path="url(#od)" d="M6 17.2c-.1-.1-.1-.4-.1-.7h-.6c0 .4.1.7.2.9.2.4.7.7 1.4.7v.7h.3v-.7c.4 0 .7-.1.9-.3.4-.3.6-.7.6-1.3 0-.4-.2-.7-.5-1-.2-.1-.6-.3-1.1-.4v-1.7c.3 0 .5.1.7.4.1.2.2.3.2.5h.6c0-.4-.1-.7-.4-.9-.2-.2-.6-.4-1-.4v-.4h-.4v.4c-.5 0-.8.1-1.1.4-.3.3-.4.6-.4.9 0 .4.1.7.4.9.2.2.6.4 1.1.5v1.9c-.4 0-.6-.2-.8-.4zm1.1-1.4c.3.1.5.2.6.2.2.1.3.4.3.6 0 .2 0 .3-.1.5-.1.3-.4.4-.8.4v-1.7zm-.9-1c-.1-.1-.2-.3-.2-.5s.1-.4.2-.5c.1-.2.3-.3.6-.3v1.6c-.2 0-.4-.1-.6-.3zm0 0"/><path clip-path="url(#od)" d="M8.3 6.4C6.1 5.1 3.8 3.7.7 1.9.1 2.6-.4 3.8.5 4.4c2 1.7 4.3 3.1 5.7 3.8 1.4.6 3.3.9 6.7 1.8-3.2-.4-5.1-.8-6.7-.5-3.2.6-5.2 3.4-4.7 5.7.4.4 1 .5 1.5.5 0-2.2 1.8-3.9 3.9-3.9 2.2 0 3.9 1.8 3.9 3.9 0 2.2-1.8 3.9-3.9 3.9-2 0-3.6-1.5-3.9-3.4-.7-.3-2.7 0-2.4.9 2.2 6.8 9.6 4.7 14.4 8.9l5.7-5.7c-2.2-2.6-2.7-6.2-5.1-8.9-1.8-2.1-4.8-3.5-7.3-5zm0 0"/></svg><svg viewBox="0 0 72 72" width="72" height="72" id="sk" x="398" y="687.6"><path d="M69 41.2c.3-1.7.4-3.4.4-5.2 0-18.5-15-33.4-33.4-33.4-1.8 0-3.5.1-5.2.4-3.1-1.9-6.7-3-10.6-3C9 0 0 9 0 20.2c0 3.9 1.1 7.5 3 10.6-.3 1.7-.4 3.4-.4 5.2 0 18.4 15 33.4 33.4 33.4 1.8 0 3.5-.1 5.2-.4 3.1 1.9 6.7 3 10.6 3C63 72 72 63 72 51.8c0-3.9-1.1-7.5-3-10.6zm-17.1 10c-1.4 2-3.5 3.6-6.2 4.8-2.7 1.1-5.9 1.7-9.6 1.7-4.4 0-8.1-.8-11-2.4-2.1-1.1-3.7-2.6-5-4.5-1.3-1.9-1.9-3.7-1.9-5.5 0-1.1.4-2 1.2-2.7.8-.8 1.8-1.1 3-1.1 1 0 1.8.3 2.5.9.7.6 1.3 1.4 1.7 2.6.6 1.3 1.2 2.4 1.8 3.3.6.9 1.6 1.6 2.7 2.2 1.2.6 2.7.8 4.7.8 2.7 0 4.8-.6 6.5-1.7 1.7-1.1 2.5-2.5 2.5-4.2 0-1.3-.4-2.4-1.3-3.3-.9-.8-2-1.5-3.5-1.9-1.4-.5-3.4-.9-5.8-1.4-3.2-.7-5.9-1.5-8.1-2.5-2.2-.9-3.9-2.2-5.2-3.9-1.3-1.6-1.9-3.7-1.9-6.1 0-2.3.7-4.4 2-6.2 1.4-1.8 3.3-3.2 5.9-4.2 2.6-1 5.6-1.4 9.1-1.4 2.8 0 5.2.3 7.2 1 2 .6 3.7 1.5 5.1 2.6 1.3 1.1 2.3 2.2 2.9 3.4.6 1.2.9 2.3.9 3.4 0 1-.4 2-1.2 2.8-.8.8-1.8 1.3-3 1.3-1.1 0-1.9-.2-2.5-.8-.6-.5-1.2-1.3-1.8-2.4-.8-1.5-1.8-2.8-2.9-3.6-1.1-.8-2.9-1.3-5.4-1.3-2.3 0-4.2.5-5.6 1.4-1.4.9-2.1 2-2.1 3.3 0 .8.2 1.5.7 2.1.5.6 1.1 1.1 2 1.5.8.4 1.7.8 2.6 1 .9.2 2.3.6 4.3 1.1 2.5.5 4.8 1.2 6.9 1.8 2.1.7 3.8 1.5 5.3 2.4 1.5 1 2.6 2.2 3.4 3.6.8 1.5 1.2 3.3 1.2 5.4 0 2.4-.7 4.7-2.1 6.7zm0 0"/></svg><svg viewBox="0 0 243.8 139" width="243.8" height="139" id="vk" x="398" y="548.6"><defs><path id="qa" d="M0 0h243.8v139H0z"/></defs><clipPath id="qb"><use xlink:href="#qa" overflow="visible"/></clipPath><path clip-path="url(#qb)" fill-rule="evenodd" clip-rule="evenodd" d="M209.6 87.8c8.1 7.9 16.6 15.3 23.8 24 3.2 3.9 6.2 7.8 8.5 12.3 3.3 6.4.3 13.4-5.4 13.8H201c-9.2.8-16.4-2.9-22.6-9.2-4.9-5-9.5-10.3-14.2-15.5-1.9-2.1-4-4.1-6.4-5.7-4.8-3.1-9-2.2-11.8 2.9-2.8 5.1-3.5 10.8-3.7 16.6-.4 8.4-2.9 10.5-11.3 10.9-17.9.8-34.9-1.9-50.8-10.9-13.9-8-24.7-19.2-34.2-32C27.7 70.2 13.7 42.9 1 14.9-1.6 8.5.5 5.1 7.4 5c11.6-.2 23.2-.2 34.8 0 4.7.1 7.8 2.8 9.6 7.2 6.3 15.4 13.9 30 23.5 43.6 2.6 3.6 5.2 7.2 8.9 9.8 4.1 2.8 7.2 1.9 9.2-2.7 1.2-2.9 1.8-6 2-9.1.9-10.7 1-21.4-.6-32.1-1-6.7-4.7-11-11.4-12.2-3.4-.6-2.9-1.9-1.2-3.8C85 2.4 87.7.3 93.1.3h40.1c6.3 1.2 7.7 4.1 8.6 10.4v44.5c-.1 2.5 1.2 9.8 5.7 11.4 3.5 1.2 5.9-1.7 8-3.9 9.6-10.2 16.4-22.2 22.6-34.7 2.7-5.5 5.1-11.2 7.3-16.9 1.7-4.2 4.3-6.3 9.1-6.2h38.6c1.1 0 2.3 0 3.4.2 6.5 1.1 8.3 3.9 6.3 10.3-3.2 10-9.3 18.3-15.3 26.6-6.4 8.9-13.3 17.5-19.7 26.5-6 8.1-5.5 12.2 1.8 19.3zm0 0"/></svg></svg>