<svg width="35" height="44"
  xmlns="http://www.w3.org/2000/svg" viewBox="0 0 306.08 381.6">
  <path fill="#2aa1eb" d="M153,0C68.64,0,0,68.64,0,153a150.57,150.57,0,0,0,2.72,28.72c.08.56.4,2.24,1,5.12A150.38,150.38,0,0,0,14,217c16.48,38.8,52.72,98.4,132.24,162.24a10.83,10.83,0,0,0,13.6,0C239.28,315.36,275.6,255.76,292.08,217a148.94,148.94,0,0,0,10.24-30.16c.64-2.88,1-4.56,1-5.12A157.15,157.15,0,0,0,306.08,153C305.92,68.64,237.28,0,153,0Zm129,177.92c0,.16-.08.32-.08.48-.08.4-.32,1.6-.72,3.44V182a126.81,126.81,0,0,1-8.88,26.08c-.08.08-.08.24-.16.32-15,35.44-47.76,89.52-119.12,148.48-71.36-59-104.16-113-119.12-148.48-.08-.08-.08-.24-.16-.32A135.21,135.21,0,0,1,24.8,182v-.16c-.48-1.84-.64-3-.72-3.44,0-.16-.08-.32-.08-.56a130.46,130.46,0,0,1-2.4-25c0-72.4,59-131.36,131.36-131.36s131.36,59,131.36,131.36a130.43,130.43,0,0,1-2.4,25Zm0,0"/>
  <path fill="#2aa1eb" d="M153,57.52a97.12,97.12,0,1,0,97.12,97.12A97.27,97.27,0,0,0,153,57.52Zm0,172.64a75.52,75.52,0,1,1,75.52-75.52A75.61,75.61,0,0,1,153,230.16Zm0,0"/>
  <path fill="#2aa1eb" d="M292.5,119.5c-7.5-40.5-78-95-119-106.5S70.5,24.5,29,75.5s4.42,160.23,5,163c7.5,36,119.64,132,119.64,132S224.5,317,258,262.5,300,160,292.5,119.5ZM153.64,229.14a74.5,74.5,0,1,1,74.5-74.5A74.5,74.5,0,0,1,153.64,229.14Z"/>
</svg>